<svg height="93px" width="93px" xmlns="http://www.w3.org/2000/svg" xmlns:xlink="http://www.w3.org/1999/xlink" version="1.1" id="Layer_1" x="0px" y="0px" viewBox="0 0 176.6 176.6" style="enable-background:new 0 0 176.6 176.6;" xml:space="preserve" class="style-svg Syndicate_circle-icon749 replaced-svg svg-replaced-8" >
    <title>Onboarding_icon_circle_purple</title>
    <g>
        <path class="st0" d="M88.3,176.6C39.6,176.6,0,137,0,88.3S39.6,0,88.3,0c48.7,0,88.3,39.6,88.3,88.3S137,176.6,88.3,176.6z M88.3,2   C40.7,2,2,40.7,2,88.3c0,47.6,38.7,86.3,86.3,86.3c47.6,0,86.3-38.7,86.3-86.3C174.6,40.7,135.9,2,88.3,2z" fill="#7A2D96"></path>
    </g>
    <g>
        <path fill="#7A2D96" class="st1" d="M52.1,41.2c-1.3,1-2.5,2-3.7,3.2c-22.5,20.9-24.7,55.6-5.7,79.2l-9.4-2.5c-0.7-0.2-1.4,0.2-1.6,0.9   c-0.2,0.7,0.2,1.4,0.9,1.6l13.6,3.7c0.1,0,0.2,0,0.3,0c0.3,0,0.6-0.1,0.9-0.3c0.3-0.2,0.5-0.6,0.5-1c0,0,0,0,0,0c0,0,0-0.1,0-0.1   l-1-13.9c-0.1-0.7-0.7-1.3-1.4-1.2c-0.7,0.1-1.3,0.7-1.2,1.4l0.7,9.9c-18.2-22.5-16.1-55.7,5.4-75.7c0.6-0.6,1.2-1.1,1.9-1.7V41.2z   "></path>
    </g>
    <g>
        <path fill="#7A2D96" class="st1" d="M134.6,51.2l8.2,2.3c0.9,0.3,1.8-0.3,2.1-1.1c0.3-0.9-0.3-1.8-1.1-2.1l-13.5-3.9c-0.5-0.1-1.1,0-1.5,0.3   c-0.4,0.3-0.7,0.9-0.6,1.4l0.8,14c0,0.9,0.8,1.6,1.7,1.6c0,0,0.1,0,0.1,0c0.9-0.1,1.6-0.8,1.6-1.8l-0.5-9   c17.6,22.4,15.4,54.9-5.8,74.7c-0.6,0.5-1.2,1.1-1.8,1.6v4.3c1.4-1.1,2.7-2.2,4.1-3.4C150.5,109.2,153,74.9,134.6,51.2z"></path>
    </g>
    <g>
        <g>
            <g>
                <path fill="#7A2D96" class="st1" d="M115.1,29.8h-54c-2.7,0-4.9,2.2-4.9,4.9v33.4c0,2.7,2.2,4.9,4.9,4.9h25.7v5.5H75.9c-0.7,0-1.3,0.6-1.3,1.3     c0,0.7,0.6,1.3,1.3,1.3h24.5c0.7,0,1.3-0.6,1.3-1.3c0-0.7-0.6-1.3-1.3-1.3H89.5V73h25.7c2.7,0,4.9-2.2,4.9-4.9V34.7     C120.1,32,117.9,29.8,115.1,29.8z M117.4,68.1c0,1.3-1,2.3-2.3,2.3h-54c-1.2,0-2.3-1-2.3-2.3v-3h58.6V68.1z M117.4,62.5H58.8     V34.7c0-1.2,1-2.3,2.3-2.3h54c1.2,0,2.3,1,2.3,2.3V62.5z"></path>
            </g>
        </g>
    </g>
    <g>
        <g>
            <path fill="#7A2D96" class="st1" d="M115.1,95.8h-54c-2.7,0-4.9,2.2-4.9,4.9v33.4c0,2.7,2.2,4.9,4.9,4.9h25.7v5.5H75.9c-0.7,0-1.3,0.6-1.3,1.3    c0,0.7,0.6,1.3,1.3,1.3h24.5c0.7,0,1.3-0.6,1.3-1.3c0-0.7-0.6-1.3-1.3-1.3H89.5V139h25.7c2.7,0,4.9-2.2,4.9-4.9v-33.4    C120.1,98,117.9,95.8,115.1,95.8z M117.4,134.1c0,1.2-1,2.3-2.3,2.3h-54c-1.2,0-2.3-1-2.3-2.3v-3h58.6V134.1z M117.4,128.4H58.8    v-27.7c0-1.3,1-2.3,2.3-2.3h54c1.2,0,2.3,1,2.3,2.3V128.4z"></path>
        </g>
    </g>
</svg>